<svg xmlns="http://www.w3.org/2000/svg" viewBox="0 0 40 26"><path fill="#fff" d="M0 0h40v26H0z"/><path fill="#2a2c83" d="M4.13 15.85s.19-.86.71-2.73l.86-3.08.12-.39h1.63c1.9 0 2.2.06 2.5.21.55.28.7.7.51 1.43a2.43 2.43 0 0 1-1.05 1.47.62.62 0 0 0-.22.22s.06.14.18.24a1.78 1.78 0 0 1 .25.29 2 2 0 0 1 0 1.07 6.83 6.83 0 0 0-.13.89v.38h-.86a2.6 2.6 0 0 1-.84-.05c-.08-.08-.06-.27.07-.84s.16-.87 0-1-.3-.25-.87-.27-.54 0-.61.06-.2.35-.45 1.31l-.22.81H5a5.72 5.72 0 0 1-.83 0zm4.15-3.5c.37-.11.53-.35.53-.82a.47.47 0 0 0-.07-.3c-.12-.14-.46-.18-1.1-.15h-.56l-.08.3a4.25 4.25 0 0 0-.2.93c0 .06 0 .1.16.12a5.39 5.39 0 0 0 1.32-.08zM10.92 16a.9.9 0 0 1-.53-.45c-.16-.37 0-1.18.56-3.16l.25-.87.06-.08c.06-.05.18-.06.66-.06a4 4 0 0 1 .69 0h.11l-.11.36a23.63 23.63 0 0 0-.55 2.31v.48c0 .1.51.28.85.11s.48-.38 1.12-2.63a1.71 1.71 0 0 1 .25-.59l.11-.12h.65c.5 0 .65 0 .66.05s-.8 3.09-1.14 4.27l-.06.19h-1.37a.88.88 0 0 1 .06-.21c.14-.39 0-.42-.54-.07a1.9 1.9 0 0 1-1.15.43 1.42 1.42 0 0 1-.59-.06zm4.58-.15a26.27 26.27 0 0 1 .8-3.1l.85-3.07h1.44c1.8 0 2.17.05 2.52.22a1.1 1.1 0 0 1 .55.51 1.85 1.85 0 0 1 0 1.52 2.7 2.7 0 0 1-1.82 1.86 7.59 7.59 0 0 1-.95.11c-1.27.07-1.19.06-1.26.23s-.16.51-.28.95l-.23.79h-.78a8 8 0 0 1-.83 0zm3.71-3.3a.91.91 0 0 0 .78-.46.87.87 0 0 0 .09-.76c-.13-.2-.31-.25-1-.24a3.1 3.1 0 0 0-.65 0 8.2 8.2 0 0 0-.33 1.3.23.23 0 0 0 0 .13 4.65 4.65 0 0 0 1.06 0zM21.56 16c-.49-.21-.61-.54-.45-1.21.22-.94.71-1.25 2.38-1.53 1-.17 1.26-.3 1.33-.66s-.18-.42-.65-.42a.86.86 0 0 0-.67.26l-.2.18h-.54c-.62 0-.81 0-.81-.11a1.65 1.65 0 0 1 .47-.66 2.25 2.25 0 0 1 .92-.48 4.9 4.9 0 0 1 2.43 0 1.3 1.3 0 0 1 .54.49c.09.18.06.36-.38 2.1-.22.86-.39 1.63-.39 1.72v.16H25a5.7 5.7 0 0 0-.7 0h-.19l-.09-.19c-.1-.23-.11-.23-.63 0a2.72 2.72 0 0 1-1.2.33 1.16 1.16 0 0 1-.66-.08zm2.21-1a1.29 1.29 0 0 0 .61-1v-.16h-.26a3.56 3.56 0 0 0-1.13.36.6.6 0 0 0-.3.51c0 .19 0 .25.17.31a1.83 1.83 0 0 0 .91-.08zM26 17.83c-.16 0-.17-.1-.05-.55.15-.6.14-.59.52-.65s.59-.15.68-.34a12.19 12.19 0 0 0 0-3.13 13.71 13.71 0 0 1-.05-1.76s.24-.05.78-.05h.73v1.38a8.9 8.9 0 0 0 .06 1.42c.08.08.35-.39 1.48-2.5l.16-.3H31a3.58 3.58 0 0 1 .67 0l-1.95 3.47c-1.4 2.4-1.66 2.73-2.32 2.91a6.12 6.12 0 0 1-1.34.07z" opacity=".94"/><path fill="#097a44" d="m32.11 17.28 1.93-7 1.83 3.64z"/><path fill="#f46f20" d="m30.92 17.31 1.93-7.06 1.83 3.65z"/></svg>